<svg xmlns:dc="http://purl.org/dc/elements/1.1/" xmlns:cc="http://creativecommons.org/ns#" xmlns:rdf="http://www.w3.org/1999/02/22-rdf-syntax-ns#" xmlns:svg="http://www.w3.org/2000/svg" xmlns="http://www.w3.org/2000/svg" xmlns:sodipodi="http://sodipodi.sourceforge.net/DTD/sodipodi-0.dtd" xmlns:inkscape="http://www.inkscape.org/namespaces/inkscape" width="141.83098mm" height="140.62724mm" viewBox="0 0 141.83098 140.62724" id="svg8" inkscape:version="1.0.2 (e86c870879, 2021-01-15)" sodipodi:docname="uncoded-button-logo.svg"><defs id="defs2"></defs><metadata></metadata><g inkscape:groupmode="layer" id="layer2" inkscape:label="Vector" transform="translate(-28.441903,-34.472117)"><g id="g869" style="stroke:#b27efc;stroke-opacity:1" transform="matrix(0.90668362,0,0,0.90668362,9.2716743,9.7782224)"><path style="fill:none;stroke:#b27efc;stroke-width:6;stroke-linecap:butt;stroke-linejoin:miter;stroke-miterlimit:4;stroke-dasharray:none;stroke-opacity:1" d="m 164.5102,59.757439 c -2.31022,-5.071443 -22.73024,-21.44944 -26.92473,-21.44944 -4.19449,0 -27.53398,0.901339 -35.61282,0.740862 -8.078836,-0.160478 -34.736119,-2.066192 -40.469207,-1.415179 -6.317544,0.71738 -24.447679,17.738915 -26.631344,21.747644 -2.183665,4.008729 -3.690145,104.185994 -3.39276,107.383094 0.297385,3.1971 2.902056,4.12677 5.075838,4.59513 2.173782,0.46836 121.664543,1.08357 124.351643,0.50487 2.6871,-0.5787 6.40858,-0.65227 6.36586,-4.619 -0.0799,-7.41999 -0.45226,-102.416538 -2.76248,-107.487981 z" id="path25" sodipodi:nodetypes="zszszzzzsz"></path><path style="fill:none;stroke:#b27efc;stroke-width:4;stroke-linecap:butt;stroke-linejoin:miter;stroke-miterlimit:4;stroke-dasharray:none;stroke-opacity:1" d="m 58.440764,40.061078 c -9.271176,3.657713 -6.459577,68.787552 -4.51099,74.218782 1.952639,5.44253 29.322476,10.57833 44.677957,11.0355 15.355479,0.45717 39.316599,-2.62503 43.570729,-8.73126 4.25413,-6.10624 4.85027,-70.357568 -1.52626,-76.308035 -6.37653,-5.950467 -41.260573,-0.288925 -41.260573,-0.288925 0,0 -31.679688,-3.583776 -40.950863,0.07394 z" id="path852" sodipodi:nodetypes="zszzzcz"></path><path style="fill:none;stroke:#b27efc;stroke-width:6;stroke-linecap:round;stroke-linejoin:miter;stroke-miterlimit:4;stroke-dasharray:none;stroke-opacity:1" d="m 70.013408,53.883237 c 0,0 0.09664,13.439914 0.137086,17.465138 0.143366,4.074674 3.215973,6.893608 11.153985,6.476106 7.938011,-0.417502 6.874787,-7.062131 6.798819,-24.223253" id="path858" sodipodi:nodetypes="cczc"></path><path style="fill:none;stroke:#b27efc;stroke-width:4;stroke-linecap:round;stroke-linejoin:miter;stroke-miterlimit:4;stroke-dasharray:none;stroke-opacity:1" d="M 53.977046,116.44555 33.968234,170.18879" id="path860" sodipodi:nodetypes="cc"></path><path style="fill:none;stroke:#b27efc;stroke-width:4;stroke-linecap:round;stroke-linejoin:miter;stroke-miterlimit:4;stroke-dasharray:none;stroke-opacity:1" d="m 142.64671,118.17203 21.78922,51.26542" id="path862" sodipodi:nodetypes="cc"></path></g></g></svg>